<?xml version = "1.0" encoding = "UTF-8" standalone = "no" ?>
<!DOCTYPE svg PUBLIC "-//W3C//DTD SVG 20010904//EN" 
"http://www.w3.org/TR/2001/REC-SVG-20010904/DTD/svg10.dtd">
<svg width="1036" height="572"  xmlns = "http://www.w3.org/2000/svg">
<line x1 = "5.000" y1 = "236.000" x2 = "1031.000" y2 = "236.000" style = "stroke:rgb(0,0,0); stroke-width:1" /> 
<line x1 = "5.000" y1 = "236.000" x2 = "11.886" y2 = "225.699" style = "stroke:rgb(0,0,0); stroke-width:2" /> 
<line x1 = "11.886" y1 = "225.699" x2 = "18.772" y2 = "215.513" style = "stroke:rgb(0,0,0); stroke-width:2" /> 
<line x1 = "18.772" y1 = "215.513" x2 = "25.658" y2 = "205.554" style = "stroke:rgb(0,0,0); stroke-width:2" /> 
<line x1 = "25.658" y1 = "205.554" x2 = "32.544" y2 = "195.933" style = "stroke:rgb(0,0,0); stroke-width:2" /> 
<line x1 = "32.544" y1 = "195.933" x2 = "39.430" y2 = "186.757" style = "stroke:rgb(0,0,0); stroke-width:2" /> 
<line x1 = "39.430" y1 = "186.757" x2 = "46.315" y2 = "178.128" style = "stroke:rgb(0,0,0); stroke-width:2" /> 
<line x1 = "46.315" y1 = "178.128" x2 = "53.201" y2 = "170.142" style = "stroke:rgb(0,0,0); stroke-width:2" /> 
<line x1 = "53.201" y1 = "170.142" x2 = "60.087" y2 = "162.886" style = "stroke:rgb(0,0,0); stroke-width:2" /> 
<line x1 = "60.087" y1 = "162.886" x2 = "66.973" y2 = "156.443" style = "stroke:rgb(0,0,0); stroke-width:2" /> 
<line x1 = "66.973" y1 = "156.443" x2 = "73.859" y2 = "150.883" style = "stroke:rgb(0,0,0); stroke-width:2" /> 
<line x1 = "73.859" y1 = "150.883" x2 = "80.745" y2 = "146.268" style = "stroke:rgb(0,0,0); stroke-width:2" /> 
<line x1 = "80.745" y1 = "146.268" x2 = "87.631" y2 = "142.649" style = "stroke:rgb(0,0,0); stroke-width:2" /> 
<line x1 = "87.631" y1 = "142.649" x2 = "94.517" y2 = "140.067" style = "stroke:rgb(0,0,0); stroke-width:2" /> 
<line x1 = "94.517" y1 = "140.067" x2 = "101.403" y2 = "138.550" style = "stroke:rgb(0,0,0); stroke-width:2" /> 
<line x1 = "101.403" y1 = "138.550" x2 = "108.289" y2 = "138.115" style = "stroke:rgb(0,0,0); stroke-width:2" /> 
<line x1 = "108.289" y1 = "138.115" x2 = "115.174" y2 = "138.767" style = "stroke:rgb(0,0,0); stroke-width:2" /> 
<line x1 = "115.174" y1 = "138.767" x2 = "122.060" y2 = "140.499" style = "stroke:rgb(0,0,0); stroke-width:2" /> 
<line x1 = "122.060" y1 = "140.499" x2 = "128.946" y2 = "143.291" style = "stroke:rgb(0,0,0); stroke-width:2" /> 
<line x1 = "128.946" y1 = "143.291" x2 = "135.832" y2 = "147.112" style = "stroke:rgb(0,0,0); stroke-width:2" /> 
<line x1 = "135.832" y1 = "147.112" x2 = "142.718" y2 = "151.921" style = "stroke:rgb(0,0,0); stroke-width:2" /> 
<line x1 = "142.718" y1 = "151.921" x2 = "149.604" y2 = "157.663" style = "stroke:rgb(0,0,0); stroke-width:2" /> 
<line x1 = "149.604" y1 = "157.663" x2 = "156.490" y2 = "164.275" style = "stroke:rgb(0,0,0); stroke-width:2" /> 
<line x1 = "156.490" y1 = "164.275" x2 = "163.376" y2 = "171.683" style = "stroke:rgb(0,0,0); stroke-width:2" /> 
<line x1 = "163.376" y1 = "171.683" x2 = "170.262" y2 = "179.806" style = "stroke:rgb(0,0,0); stroke-width:2" /> 
<line x1 = "170.262" y1 = "179.806" x2 = "177.148" y2 = "188.552" style = "stroke:rgb(0,0,0); stroke-width:2" /> 
<line x1 = "177.148" y1 = "188.552" x2 = "184.034" y2 = "197.825" style = "stroke:rgb(0,0,0); stroke-width:2" /> 
<line x1 = "184.034" y1 = "197.825" x2 = "190.919" y2 = "207.522" style = "stroke:rgb(0,0,0); stroke-width:2" /> 
<line x1 = "190.919" y1 = "207.522" x2 = "197.805" y2 = "217.536" style = "stroke:rgb(0,0,0); stroke-width:2" /> 
<line x1 = "197.805" y1 = "217.536" x2 = "204.691" y2 = "227.754" style = "stroke:rgb(0,0,0); stroke-width:2" /> 
<line x1 = "204.691" y1 = "227.754" x2 = "211.577" y2 = "238.064" style = "stroke:rgb(0,0,0); stroke-width:2" /> 
<line x1 = "211.577" y1 = "238.064" x2 = "218.463" y2 = "248.351" style = "stroke:rgb(0,0,0); stroke-width:2" /> 
<line x1 = "218.463" y1 = "248.351" x2 = "225.349" y2 = "258.501" style = "stroke:rgb(0,0,0); stroke-width:2" /> 
<line x1 = "225.349" y1 = "258.501" x2 = "232.235" y2 = "268.401" style = "stroke:rgb(0,0,0); stroke-width:2" /> 
<line x1 = "232.235" y1 = "268.401" x2 = "239.121" y2 = "277.941" style = "stroke:rgb(0,0,0); stroke-width:2" /> 
<line x1 = "239.121" y1 = "277.941" x2 = "246.007" y2 = "287.015" style = "stroke:rgb(0,0,0); stroke-width:2" /> 
<line x1 = "246.007" y1 = "287.015" x2 = "252.893" y2 = "295.524" style = "stroke:rgb(0,0,0); stroke-width:2" /> 
<line x1 = "252.893" y1 = "295.524" x2 = "259.779" y2 = "303.371" style = "stroke:rgb(0,0,0); stroke-width:2" /> 
<line x1 = "259.779" y1 = "303.371" x2 = "266.664" y2 = "310.470" style = "stroke:rgb(0,0,0); stroke-width:2" /> 
<line x1 = "266.664" y1 = "310.470" x2 = "273.550" y2 = "316.742" style = "stroke:rgb(0,0,0); stroke-width:2" /> 
<line x1 = "273.550" y1 = "316.742" x2 = "280.436" y2 = "322.118" style = "stroke:rgb(0,0,0); stroke-width:2" /> 
<line x1 = "280.436" y1 = "322.118" x2 = "287.322" y2 = "326.537" style = "stroke:rgb(0,0,0); stroke-width:2" /> 
<line x1 = "287.322" y1 = "326.537" x2 = "294.208" y2 = "329.951" style = "stroke:rgb(0,0,0); stroke-width:2" /> 
<line x1 = "294.208" y1 = "329.951" x2 = "301.094" y2 = "332.322" style = "stroke:rgb(0,0,0); stroke-width:2" /> 
<line x1 = "301.094" y1 = "332.322" x2 = "307.980" y2 = "333.624" style = "stroke:rgb(0,0,0); stroke-width:2" /> 
<line x1 = "307.980" y1 = "333.624" x2 = "314.866" y2 = "333.841" style = "stroke:rgb(0,0,0); stroke-width:2" /> 
<line x1 = "314.866" y1 = "333.841" x2 = "321.752" y2 = "332.972" style = "stroke:rgb(0,0,0); stroke-width:2" /> 
<line x1 = "321.752" y1 = "332.972" x2 = "328.638" y2 = "331.027" style = "stroke:rgb(0,0,0); stroke-width:2" /> 
<line x1 = "328.638" y1 = "331.027" x2 = "335.523" y2 = "328.026" style = "stroke:rgb(0,0,0); stroke-width:2" /> 
<line x1 = "335.523" y1 = "328.026" x2 = "342.409" y2 = "324.003" style = "stroke:rgb(0,0,0); stroke-width:2" /> 
<line x1 = "342.409" y1 = "324.003" x2 = "349.295" y2 = "319.003" style = "stroke:rgb(0,0,0); stroke-width:2" /> 
<line x1 = "349.295" y1 = "319.003" x2 = "356.181" y2 = "313.082" style = "stroke:rgb(0,0,0); stroke-width:2" /> 
<line x1 = "356.181" y1 = "313.082" x2 = "363.067" y2 = "306.305" style = "stroke:rgb(0,0,0); stroke-width:2" /> 
<line x1 = "363.067" y1 = "306.305" x2 = "369.953" y2 = "298.747" style = "stroke:rgb(0,0,0); stroke-width:2" /> 
<line x1 = "369.953" y1 = "298.747" x2 = "376.839" y2 = "290.492" style = "stroke:rgb(0,0,0); stroke-width:2" /> 
<line x1 = "376.839" y1 = "290.492" x2 = "383.725" y2 = "281.632" style = "stroke:rgb(0,0,0); stroke-width:2" /> 
<line x1 = "383.725" y1 = "281.632" x2 = "390.611" y2 = "272.266" style = "stroke:rgb(0,0,0); stroke-width:2" /> 
<line x1 = "390.611" y1 = "272.266" x2 = "397.497" y2 = "262.497" style = "stroke:rgb(0,0,0); stroke-width:2" /> 
<line x1 = "397.497" y1 = "262.497" x2 = "404.383" y2 = "252.434" style = "stroke:rgb(0,0,0); stroke-width:2" /> 
<line x1 = "404.383" y1 = "252.434" x2 = "411.268" y2 = "242.188" style = "stroke:rgb(0,0,0); stroke-width:2" /> 
<line x1 = "411.268" y1 = "242.188" x2 = "418.154" y2 = "231.873" style = "stroke:rgb(0,0,0); stroke-width:2" /> 
<line x1 = "418.154" y1 = "231.873" x2 = "425.040" y2 = "221.605" style = "stroke:rgb(0,0,0); stroke-width:2" /> 
<line x1 = "425.040" y1 = "221.605" x2 = "431.926" y2 = "211.496" style = "stroke:rgb(0,0,0); stroke-width:2" /> 
<line x1 = "431.926" y1 = "211.496" x2 = "438.812" y2 = "201.659" style = "stroke:rgb(0,0,0); stroke-width:2" /> 
<line x1 = "438.812" y1 = "201.659" x2 = "445.698" y2 = "192.204" style = "stroke:rgb(0,0,0); stroke-width:2" /> 
<line x1 = "445.698" y1 = "192.204" x2 = "452.584" y2 = "183.234" style = "stroke:rgb(0,0,0); stroke-width:2" /> 
<line x1 = "452.584" y1 = "183.234" x2 = "459.470" y2 = "174.851" style = "stroke:rgb(0,0,0); stroke-width:2" /> 
<line x1 = "459.470" y1 = "174.851" x2 = "466.356" y2 = "167.147" style = "stroke:rgb(0,0,0); stroke-width:2" /> 
<line x1 = "466.356" y1 = "167.147" x2 = "473.242" y2 = "160.207" style = "stroke:rgb(0,0,0); stroke-width:2" /> 
<line x1 = "473.242" y1 = "160.207" x2 = "480.128" y2 = "154.109" style = "stroke:rgb(0,0,0); stroke-width:2" /> 
<line x1 = "480.128" y1 = "154.109" x2 = "487.013" y2 = "148.920" style = "stroke:rgb(0,0,0); stroke-width:2" /> 
<line x1 = "487.013" y1 = "148.920" x2 = "493.899" y2 = "144.698" style = "stroke:rgb(0,0,0); stroke-width:2" /> 
<line x1 = "493.899" y1 = "144.698" x2 = "500.785" y2 = "141.490" style = "stroke:rgb(0,0,0); stroke-width:2" /> 
<line x1 = "500.785" y1 = "141.490" x2 = "507.671" y2 = "139.331" style = "stroke:rgb(0,0,0); stroke-width:2" /> 
<line x1 = "507.671" y1 = "139.331" x2 = "514.557" y2 = "138.246" style = "stroke:rgb(0,0,0); stroke-width:2" /> 
<line x1 = "514.557" y1 = "138.246" x2 = "521.443" y2 = "138.246" style = "stroke:rgb(0,0,0); stroke-width:2" /> 
<line x1 = "521.443" y1 = "138.246" x2 = "528.329" y2 = "139.331" style = "stroke:rgb(0,0,0); stroke-width:2" /> 
<line x1 = "528.329" y1 = "139.331" x2 = "535.215" y2 = "141.490" style = "stroke:rgb(0,0,0); stroke-width:2" /> 
<line x1 = "535.215" y1 = "141.490" x2 = "542.101" y2 = "144.698" style = "stroke:rgb(0,0,0); stroke-width:2" /> 
<line x1 = "542.101" y1 = "144.698" x2 = "548.987" y2 = "148.920" style = "stroke:rgb(0,0,0); stroke-width:2" /> 
<line x1 = "548.987" y1 = "148.920" x2 = "555.872" y2 = "154.109" style = "stroke:rgb(0,0,0); stroke-width:2" /> 
<line x1 = "555.872" y1 = "154.109" x2 = "562.758" y2 = "160.207" style = "stroke:rgb(0,0,0); stroke-width:2" /> 
<line x1 = "562.758" y1 = "160.207" x2 = "569.644" y2 = "167.147" style = "stroke:rgb(0,0,0); stroke-width:2" /> 
<line x1 = "569.644" y1 = "167.147" x2 = "576.530" y2 = "174.851" style = "stroke:rgb(0,0,0); stroke-width:2" /> 
<line x1 = "576.530" y1 = "174.851" x2 = "583.416" y2 = "183.234" style = "stroke:rgb(0,0,0); stroke-width:2" /> 
<line x1 = "583.416" y1 = "183.234" x2 = "590.302" y2 = "192.204" style = "stroke:rgb(0,0,0); stroke-width:2" /> 
<line x1 = "590.302" y1 = "192.204" x2 = "597.188" y2 = "201.659" style = "stroke:rgb(0,0,0); stroke-width:2" /> 
<line x1 = "597.188" y1 = "201.659" x2 = "604.074" y2 = "211.496" style = "stroke:rgb(0,0,0); stroke-width:2" /> 
<line x1 = "604.074" y1 = "211.496" x2 = "610.960" y2 = "221.605" style = "stroke:rgb(0,0,0); stroke-width:2" /> 
<line x1 = "610.960" y1 = "221.605" x2 = "617.846" y2 = "231.873" style = "stroke:rgb(0,0,0); stroke-width:2" /> 
<line x1 = "617.846" y1 = "231.873" x2 = "624.732" y2 = "242.188" style = "stroke:rgb(0,0,0); stroke-width:2" /> 
<line x1 = "624.732" y1 = "242.188" x2 = "631.617" y2 = "252.434" style = "stroke:rgb(0,0,0); stroke-width:2" /> 
<line x1 = "631.617" y1 = "252.434" x2 = "638.503" y2 = "262.497" style = "stroke:rgb(0,0,0); stroke-width:2" /> 
<line x1 = "638.503" y1 = "262.497" x2 = "645.389" y2 = "272.266" style = "stroke:rgb(0,0,0); stroke-width:2" /> 
<line x1 = "645.389" y1 = "272.266" x2 = "652.275" y2 = "281.632" style = "stroke:rgb(0,0,0); stroke-width:2" /> 
<line x1 = "652.275" y1 = "281.632" x2 = "659.161" y2 = "290.492" style = "stroke:rgb(0,0,0); stroke-width:2" /> 
<line x1 = "659.161" y1 = "290.492" x2 = "666.047" y2 = "298.747" style = "stroke:rgb(0,0,0); stroke-width:2" /> 
<line x1 = "666.047" y1 = "298.747" x2 = "672.933" y2 = "306.305" style = "stroke:rgb(0,0,0); stroke-width:2" /> 
<line x1 = "672.933" y1 = "306.305" x2 = "679.819" y2 = "313.082" style = "stroke:rgb(0,0,0); stroke-width:2" /> 
<line x1 = "679.819" y1 = "313.082" x2 = "686.705" y2 = "319.003" style = "stroke:rgb(0,0,0); stroke-width:2" /> 
<line x1 = "686.705" y1 = "319.003" x2 = "693.591" y2 = "324.003" style = "stroke:rgb(0,0,0); stroke-width:2" /> 
<line x1 = "693.591" y1 = "324.003" x2 = "700.477" y2 = "328.026" style = "stroke:rgb(0,0,0); stroke-width:2" /> 
<line x1 = "700.477" y1 = "328.026" x2 = "707.362" y2 = "331.027" style = "stroke:rgb(0,0,0); stroke-width:2" /> 
<line x1 = "707.362" y1 = "331.027" x2 = "714.248" y2 = "332.972" style = "stroke:rgb(0,0,0); stroke-width:2" /> 
<line x1 = "714.248" y1 = "332.972" x2 = "721.134" y2 = "333.841" style = "stroke:rgb(0,0,0); stroke-width:2" /> 
<line x1 = "721.134" y1 = "333.841" x2 = "728.020" y2 = "333.624" style = "stroke:rgb(0,0,0); stroke-width:2" /> 
<line x1 = "728.020" y1 = "333.624" x2 = "734.906" y2 = "332.322" style = "stroke:rgb(0,0,0); stroke-width:2" /> 
<line x1 = "734.906" y1 = "332.322" x2 = "741.792" y2 = "329.951" style = "stroke:rgb(0,0,0); stroke-width:2" /> 
<line x1 = "741.792" y1 = "329.951" x2 = "748.678" y2 = "326.537" style = "stroke:rgb(0,0,0); stroke-width:2" /> 
<line x1 = "748.678" y1 = "326.537" x2 = "755.564" y2 = "322.118" style = "stroke:rgb(0,0,0); stroke-width:2" /> 
<line x1 = "755.564" y1 = "322.118" x2 = "762.450" y2 = "316.742" style = "stroke:rgb(0,0,0); stroke-width:2" /> 
<line x1 = "762.450" y1 = "316.742" x2 = "769.336" y2 = "310.470" style = "stroke:rgb(0,0,0); stroke-width:2" /> 
<line x1 = "769.336" y1 = "310.470" x2 = "776.221" y2 = "303.371" style = "stroke:rgb(0,0,0); stroke-width:2" /> 
<line x1 = "776.221" y1 = "303.371" x2 = "783.107" y2 = "295.524" style = "stroke:rgb(0,0,0); stroke-width:2" /> 
<line x1 = "783.107" y1 = "295.524" x2 = "789.993" y2 = "287.015" style = "stroke:rgb(0,0,0); stroke-width:2" /> 
<line x1 = "789.993" y1 = "287.015" x2 = "796.879" y2 = "277.941" style = "stroke:rgb(0,0,0); stroke-width:2" /> 
<line x1 = "796.879" y1 = "277.941" x2 = "803.765" y2 = "268.401" style = "stroke:rgb(0,0,0); stroke-width:2" /> 
<line x1 = "803.765" y1 = "268.401" x2 = "810.651" y2 = "258.501" style = "stroke:rgb(0,0,0); stroke-width:2" /> 
<line x1 = "810.651" y1 = "258.501" x2 = "817.537" y2 = "248.351" style = "stroke:rgb(0,0,0); stroke-width:2" /> 
<line x1 = "817.537" y1 = "248.351" x2 = "824.423" y2 = "238.064" style = "stroke:rgb(0,0,0); stroke-width:2" /> 
<line x1 = "824.423" y1 = "238.064" x2 = "831.309" y2 = "227.754" style = "stroke:rgb(0,0,0); stroke-width:2" /> 
<line x1 = "831.309" y1 = "227.754" x2 = "838.195" y2 = "217.536" style = "stroke:rgb(0,0,0); stroke-width:2" /> 
<line x1 = "838.195" y1 = "217.536" x2 = "845.081" y2 = "207.522" style = "stroke:rgb(0,0,0); stroke-width:2" /> 
<line x1 = "845.081" y1 = "207.522" x2 = "851.966" y2 = "197.825" style = "stroke:rgb(0,0,0); stroke-width:2" /> 
<line x1 = "851.966" y1 = "197.825" x2 = "858.852" y2 = "188.552" style = "stroke:rgb(0,0,0); stroke-width:2" /> 
<line x1 = "858.852" y1 = "188.552" x2 = "865.738" y2 = "179.806" style = "stroke:rgb(0,0,0); stroke-width:2" /> 
<line x1 = "865.738" y1 = "179.806" x2 = "872.624" y2 = "171.683" style = "stroke:rgb(0,0,0); stroke-width:2" /> 
<line x1 = "872.624" y1 = "171.683" x2 = "879.510" y2 = "164.275" style = "stroke:rgb(0,0,0); stroke-width:2" /> 
<line x1 = "879.510" y1 = "164.275" x2 = "886.396" y2 = "157.663" style = "stroke:rgb(0,0,0); stroke-width:2" /> 
<line x1 = "886.396" y1 = "157.663" x2 = "893.282" y2 = "151.921" style = "stroke:rgb(0,0,0); stroke-width:2" /> 
<line x1 = "893.282" y1 = "151.921" x2 = "900.168" y2 = "147.112" style = "stroke:rgb(0,0,0); stroke-width:2" /> 
<line x1 = "900.168" y1 = "147.112" x2 = "907.054" y2 = "143.291" style = "stroke:rgb(0,0,0); stroke-width:2" /> 
<line x1 = "907.054" y1 = "143.291" x2 = "913.940" y2 = "140.499" style = "stroke:rgb(0,0,0); stroke-width:2" /> 
<line x1 = "913.940" y1 = "140.499" x2 = "920.826" y2 = "138.767" style = "stroke:rgb(0,0,0); stroke-width:2" /> 
<line x1 = "920.826" y1 = "138.767" x2 = "927.711" y2 = "138.115" style = "stroke:rgb(0,0,0); stroke-width:2" /> 
<line x1 = "927.711" y1 = "138.115" x2 = "934.597" y2 = "138.550" style = "stroke:rgb(0,0,0); stroke-width:2" /> 
<line x1 = "934.597" y1 = "138.550" x2 = "941.483" y2 = "140.067" style = "stroke:rgb(0,0,0); stroke-width:2" /> 
<line x1 = "941.483" y1 = "140.067" x2 = "948.369" y2 = "142.649" style = "stroke:rgb(0,0,0); stroke-width:2" /> 
<line x1 = "948.369" y1 = "142.649" x2 = "955.255" y2 = "146.268" style = "stroke:rgb(0,0,0); stroke-width:2" /> 
<line x1 = "955.255" y1 = "146.268" x2 = "962.141" y2 = "150.883" style = "stroke:rgb(0,0,0); stroke-width:2" /> 
<line x1 = "962.141" y1 = "150.883" x2 = "969.027" y2 = "156.443" style = "stroke:rgb(0,0,0); stroke-width:2" /> 
<line x1 = "969.027" y1 = "156.443" x2 = "975.913" y2 = "162.886" style = "stroke:rgb(0,0,0); stroke-width:2" /> 
<line x1 = "975.913" y1 = "162.886" x2 = "982.799" y2 = "170.142" style = "stroke:rgb(0,0,0); stroke-width:2" /> 
<line x1 = "982.799" y1 = "170.142" x2 = "989.685" y2 = "178.128" style = "stroke:rgb(0,0,0); stroke-width:2" /> 
<line x1 = "989.685" y1 = "178.128" x2 = "996.570" y2 = "186.757" style = "stroke:rgb(0,0,0); stroke-width:2" /> 
<line x1 = "996.570" y1 = "186.757" x2 = "1003.456" y2 = "195.933" style = "stroke:rgb(0,0,0); stroke-width:2" /> 
<line x1 = "1003.456" y1 = "195.933" x2 = "1010.342" y2 = "205.554" style = "stroke:rgb(0,0,0); stroke-width:2" /> 
<line x1 = "1010.342" y1 = "205.554" x2 = "1017.228" y2 = "215.513" style = "stroke:rgb(0,0,0); stroke-width:2" /> 
<line x1 = "1017.228" y1 = "215.513" x2 = "1024.114" y2 = "225.699" style = "stroke:rgb(0,0,0); stroke-width:2" /> 
<line x1 = "1024.114" y1 = "225.699" x2 = "1031.000" y2 = "236.000" style = "stroke:rgb(0,0,0); stroke-width:2" /> 
<line x1 = "107.600" y1 = "236.000" x2 = "107.600" y2 = "139.115" style = "stroke:rgb(138,43,226); stroke-width:2" /> 
<line x1 = "107.600" y1 = "139.615" x2 = "102.600" y2 = "149.115" style = "stroke:rgb(138,43,226); stroke-width:2" /> 
<line x1 = "107.600" y1 = "139.615" x2 = "112.600" y2 = "149.115" style = "stroke:rgb(138,43,226); stroke-width:2" /> 
<line x1 = "312.800" y1 = "236.000" x2 = "312.800" y2 = "332.841" style = "stroke:rgb(138,43,226); stroke-width:2" /> 
<line x1 = "312.800" y1 = "333.341" x2 = "307.800" y2 = "322.841" style = "stroke:rgb(138,43,226); stroke-width:2" /> 
<line x1 = "312.800" y1 = "333.341" x2 = "317.800" y2 = "322.841" style = "stroke:rgb(138,43,226); stroke-width:2" /> 
<line x1 = "518.000" y1 = "236.000" x2 = "518.000" y2 = "139.246" style = "stroke:rgb(138,43,226); stroke-width:2" /> 
<line x1 = "518.000" y1 = "139.746" x2 = "513.000" y2 = "149.246" style = "stroke:rgb(138,43,226); stroke-width:2" /> 
<line x1 = "518.000" y1 = "139.746" x2 = "523.000" y2 = "149.246" style = "stroke:rgb(138,43,226); stroke-width:2" /> 
<line x1 = "723.200" y1 = "236.000" x2 = "723.200" y2 = "332.624" style = "stroke:rgb(138,43,226); stroke-width:2" /> 
<line x1 = "723.200" y1 = "333.124" x2 = "718.200" y2 = "322.624" style = "stroke:rgb(138,43,226); stroke-width:2" /> 
<line x1 = "723.200" y1 = "333.124" x2 = "728.200" y2 = "322.624" style = "stroke:rgb(138,43,226); stroke-width:2" /> 
<line x1 = "928.400" y1 = "236.000" x2 = "928.400" y2 = "139.550" style = "stroke:rgb(138,43,226); stroke-width:2" /> 
<line x1 = "928.400" y1 = "140.050" x2 = "923.400" y2 = "149.550" style = "stroke:rgb(138,43,226); stroke-width:2" /> 
<line x1 = "928.400" y1 = "140.050" x2 = "933.400" y2 = "149.550" style = "stroke:rgb(138,43,226); stroke-width:2" /> 
<circle cx = "5.000" cy = "236.000" r = "5" fill = "rgb(255,0,0)" /> 
<circle cx = "210.200" cy = "236.000" r = "5" fill = "rgb(255,0,0)" /> 
<circle cx = "415.400" cy = "236.000" r = "5" fill = "rgb(255,0,0)" /> 
<circle cx = "620.600" cy = "236.000" r = "5" fill = "rgb(255,0,0)" /> 
<circle cx = "825.800" cy = "236.000" r = "5" fill = "rgb(255,0,0)" /> 
<circle cx = "1031.000" cy = "236.000" r = "5" fill = "rgb(255,0,0)" /> 

</svg>