<?xml version = "1.0" encoding = "UTF-8" standalone = "no" ?>
<!DOCTYPE svg PUBLIC "-//W3C//DTD SVG 20010904//EN" 
"http://www.w3.org/TR/2001/REC-SVG-20010904/DTD/svg10.dtd">
<svg xmlns = "http://www.w3.org/2000/svg">
<line x1 = "000" y1 = "060" x2 = "792" y2 = "060" style = "stroke:rgb(0,0,0);stroke-width:1" /><line x1 = "000" y1 = "112" x2 = "005" y2 = "111" style = "stroke:rgb(0,128,0);stroke-width:2" /><line x1 = "005" y1 = "111" x2 = "011" y2 = "110" style = "stroke:rgb(0,128,0);stroke-width:2" /><line x1 = "011" y1 = "110" x2 = "016" y2 = "108" style = "stroke:rgb(0,128,0);stroke-width:2" /><line x1 = "016" y1 = "108" x2 = "021" y2 = "105" style = "stroke:rgb(0,128,0);stroke-width:2" /><line x1 = "021" y1 = "105" x2 = "027" y2 = "102" style = "stroke:rgb(0,128,0);stroke-width:2" /><line x1 = "027" y1 = "102" x2 = "032" y2 = "097" style = "stroke:rgb(0,128,0);stroke-width:2" /><line x1 = "032" y1 = "097" x2 = "037" y2 = "093" style = "stroke:rgb(0,128,0);stroke-width:2" /><line x1 = "037" y1 = "093" x2 = "043" y2 = "087" style = "stroke:rgb(0,128,0);stroke-width:2" /><line x1 = "043" y1 = "087" x2 = "048" y2 = "081" style = "stroke:rgb(0,128,0);stroke-width:2" /><line x1 = "048" y1 = "081" x2 = "053" y2 = "075" style = "stroke:rgb(0,128,0);stroke-width:2" /><line x1 = "053" y1 = "075" x2 = "058" y2 = "069" style = "stroke:rgb(0,128,0);stroke-width:2" /><line x1 = "058" y1 = "069" x2 = "064" y2 = "062" style = "stroke:rgb(0,128,0);stroke-width:2" /><line x1 = "064" y1 = "062" x2 = "069" y2 = "056" style = "stroke:rgb(0,128,0);stroke-width:2" /><line x1 = "069" y1 = "056" x2 = "074" y2 = "049" style = "stroke:rgb(0,128,0);stroke-width:2" /><line x1 = "074" y1 = "049" x2 = "080" y2 = "043" style = "stroke:rgb(0,128,0);stroke-width:2" /><line x1 = "080" y1 = "043" x2 = "085" y2 = "037" style = "stroke:rgb(0,128,0);stroke-width:2" /><line x1 = "085" y1 = "037" x2 = "090" y2 = "031" style = "stroke:rgb(0,128,0);stroke-width:2" /><line x1 = "090" y1 = "031" x2 = "096" y2 = "026" style = "stroke:rgb(0,128,0);stroke-width:2" /><line x1 = "096" y1 = "026" x2 = "101" y2 = "021" style = "stroke:rgb(0,128,0);stroke-width:2" /><line x1 = "101" y1 = "021" x2 = "106" y2 = "017" style = "stroke:rgb(0,128,0);stroke-width:2" /><line x1 = "106" y1 = "017" x2 = "112" y2 = "013" style = "stroke:rgb(0,128,0);stroke-width:2" /><line x1 = "112" y1 = "013" x2 = "117" y2 = "010" style = "stroke:rgb(0,128,0);stroke-width:2" /><line x1 = "117" y1 = "010" x2 = "122" y2 = "009" style = "stroke:rgb(0,128,0);stroke-width:2" /><line x1 = "122" y1 = "009" x2 = "128" y2 = "007" style = "stroke:rgb(0,128,0);stroke-width:2" /><line x1 = "128" y1 = "007" x2 = "133" y2 = "007" style = "stroke:rgb(0,128,0);stroke-width:2" /><line x1 = "133" y1 = "007" x2 = "138" y2 = "008" style = "stroke:rgb(0,128,0);stroke-width:2" /><line x1 = "138" y1 = "008" x2 = "144" y2 = "009" style = "stroke:rgb(0,128,0);stroke-width:2" /><line x1 = "144" y1 = "009" x2 = "149" y2 = "011" style = "stroke:rgb(0,128,0);stroke-width:2" /><line x1 = "149" y1 = "011" x2 = "154" y2 = "014" style = "stroke:rgb(0,128,0);stroke-width:2" /><line x1 = "154" y1 = "014" x2 = "159" y2 = "018" style = "stroke:rgb(0,128,0);stroke-width:2" /><line x1 = "159" y1 = "018" x2 = "165" y2 = "022" style = "stroke:rgb(0,128,0);stroke-width:2" /><line x1 = "165" y1 = "022" x2 = "170" y2 = "027" style = "stroke:rgb(0,128,0);stroke-width:2" /><line x1 = "170" y1 = "027" x2 = "175" y2 = "033" style = "stroke:rgb(0,128,0);stroke-width:2" /><line x1 = "175" y1 = "033" x2 = "181" y2 = "039" style = "stroke:rgb(0,128,0);stroke-width:2" /><line x1 = "181" y1 = "039" x2 = "186" y2 = "045" style = "stroke:rgb(0,128,0);stroke-width:2" /><line x1 = "186" y1 = "045" x2 = "191" y2 = "051" style = "stroke:rgb(0,128,0);stroke-width:2" /><line x1 = "191" y1 = "051" x2 = "197" y2 = "058" style = "stroke:rgb(0,128,0);stroke-width:2" /><line x1 = "197" y1 = "058" x2 = "202" y2 = "064" style = "stroke:rgb(0,128,0);stroke-width:2" /><line x1 = "202" y1 = "064" x2 = "207" y2 = "071" style = "stroke:rgb(0,128,0);stroke-width:2" /><line x1 = "207" y1 = "071" x2 = "213" y2 = "077" style = "stroke:rgb(0,128,0);stroke-width:2" /><line x1 = "213" y1 = "077" x2 = "218" y2 = "083" style = "stroke:rgb(0,128,0);stroke-width:2" /><line x1 = "218" y1 = "083" x2 = "223" y2 = "089" style = "stroke:rgb(0,128,0);stroke-width:2" /><line x1 = "223" y1 = "089" x2 = "229" y2 = "094" style = "stroke:rgb(0,128,0);stroke-width:2" /><line x1 = "229" y1 = "094" x2 = "234" y2 = "099" style = "stroke:rgb(0,128,0);stroke-width:2" /><line x1 = "234" y1 = "099" x2 = "239" y2 = "103" style = "stroke:rgb(0,128,0);stroke-width:2" /><line x1 = "239" y1 = "103" x2 = "245" y2 = "106" style = "stroke:rgb(0,128,0);stroke-width:2" /><line x1 = "245" y1 = "106" x2 = "250" y2 = "109" style = "stroke:rgb(0,128,0);stroke-width:2" /><line x1 = "250" y1 = "109" x2 = "255" y2 = "111" style = "stroke:rgb(0,128,0);stroke-width:2" /><line x1 = "255" y1 = "111" x2 = "260" y2 = "112" style = "stroke:rgb(0,128,0);stroke-width:2" /><line x1 = "260" y1 = "112" x2 = "266" y2 = "112" style = "stroke:rgb(0,128,0);stroke-width:2" /><line x1 = "266" y1 = "112" x2 = "271" y2 = "111" style = "stroke:rgb(0,128,0);stroke-width:2" /><line x1 = "271" y1 = "111" x2 = "276" y2 = "110" style = "stroke:rgb(0,128,0);stroke-width:2" /><line x1 = "276" y1 = "110" x2 = "282" y2 = "107" style = "stroke:rgb(0,128,0);stroke-width:2" /><line x1 = "282" y1 = "107" x2 = "287" y2 = "104" style = "stroke:rgb(0,128,0);stroke-width:2" /><line x1 = "287" y1 = "104" x2 = "292" y2 = "100" style = "stroke:rgb(0,128,0);stroke-width:2" /><line x1 = "292" y1 = "100" x2 = "298" y2 = "096" style = "stroke:rgb(0,128,0);stroke-width:2" /><line x1 = "298" y1 = "096" x2 = "303" y2 = "091" style = "stroke:rgb(0,128,0);stroke-width:2" /><line x1 = "303" y1 = "091" x2 = "308" y2 = "085" style = "stroke:rgb(0,128,0);stroke-width:2" /><line x1 = "308" y1 = "085" x2 = "314" y2 = "079" style = "stroke:rgb(0,128,0);stroke-width:2" /><line x1 = "314" y1 = "079" x2 = "319" y2 = "073" style = "stroke:rgb(0,128,0);stroke-width:2" /><line x1 = "319" y1 = "073" x2 = "324" y2 = "067" style = "stroke:rgb(0,128,0);stroke-width:2" /><line x1 = "324" y1 = "067" x2 = "330" y2 = "060" style = "stroke:rgb(0,128,0);stroke-width:2" /><line x1 = "330" y1 = "060" x2 = "335" y2 = "053" style = "stroke:rgb(0,128,0);stroke-width:2" /><line x1 = "335" y1 = "053" x2 = "340" y2 = "047" style = "stroke:rgb(0,128,0);stroke-width:2" /><line x1 = "340" y1 = "047" x2 = "346" y2 = "041" style = "stroke:rgb(0,128,0);stroke-width:2" /><line x1 = "346" y1 = "041" x2 = "351" y2 = "035" style = "stroke:rgb(0,128,0);stroke-width:2" /><line x1 = "351" y1 = "035" x2 = "356" y2 = "029" style = "stroke:rgb(0,128,0);stroke-width:2" /><line x1 = "356" y1 = "029" x2 = "361" y2 = "024" style = "stroke:rgb(0,128,0);stroke-width:2" /><line x1 = "361" y1 = "024" x2 = "367" y2 = "019" style = "stroke:rgb(0,128,0);stroke-width:2" /><line x1 = "367" y1 = "019" x2 = "372" y2 = "015" style = "stroke:rgb(0,128,0);stroke-width:2" /><line x1 = "372" y1 = "015" x2 = "377" y2 = "012" style = "stroke:rgb(0,128,0);stroke-width:2" /><line x1 = "377" y1 = "012" x2 = "383" y2 = "010" style = "stroke:rgb(0,128,0);stroke-width:2" /><line x1 = "383" y1 = "010" x2 = "388" y2 = "008" style = "stroke:rgb(0,128,0);stroke-width:2" /><line x1 = "388" y1 = "008" x2 = "393" y2 = "007" style = "stroke:rgb(0,128,0);stroke-width:2" /><line x1 = "393" y1 = "007" x2 = "399" y2 = "007" style = "stroke:rgb(0,128,0);stroke-width:2" /><line x1 = "399" y1 = "007" x2 = "404" y2 = "008" style = "stroke:rgb(0,128,0);stroke-width:2" /><line x1 = "404" y1 = "008" x2 = "409" y2 = "010" style = "stroke:rgb(0,128,0);stroke-width:2" /><line x1 = "409" y1 = "010" x2 = "415" y2 = "012" style = "stroke:rgb(0,128,0);stroke-width:2" /><line x1 = "415" y1 = "012" x2 = "420" y2 = "015" style = "stroke:rgb(0,128,0);stroke-width:2" /><line x1 = "420" y1 = "015" x2 = "425" y2 = "019" style = "stroke:rgb(0,128,0);stroke-width:2" /><line x1 = "425" y1 = "019" x2 = "431" y2 = "024" style = "stroke:rgb(0,128,0);stroke-width:2" /><line x1 = "431" y1 = "024" x2 = "436" y2 = "029" style = "stroke:rgb(0,128,0);stroke-width:2" /><line x1 = "436" y1 = "029" x2 = "441" y2 = "035" style = "stroke:rgb(0,128,0);stroke-width:2" /><line x1 = "441" y1 = "035" x2 = "446" y2 = "041" style = "stroke:rgb(0,128,0);stroke-width:2" /><line x1 = "446" y1 = "041" x2 = "452" y2 = "047" style = "stroke:rgb(0,128,0);stroke-width:2" /><line x1 = "452" y1 = "047" x2 = "457" y2 = "053" style = "stroke:rgb(0,128,0);stroke-width:2" /><line x1 = "457" y1 = "053" x2 = "462" y2 = "060" style = "stroke:rgb(0,128,0);stroke-width:2" /><line x1 = "462" y1 = "060" x2 = "468" y2 = "067" style = "stroke:rgb(0,128,0);stroke-width:2" /><line x1 = "468" y1 = "067" x2 = "473" y2 = "073" style = "stroke:rgb(0,128,0);stroke-width:2" /><line x1 = "473" y1 = "073" x2 = "478" y2 = "079" style = "stroke:rgb(0,128,0);stroke-width:2" /><line x1 = "478" y1 = "079" x2 = "484" y2 = "085" style = "stroke:rgb(0,128,0);stroke-width:2" /><line x1 = "484" y1 = "085" x2 = "489" y2 = "091" style = "stroke:rgb(0,128,0);stroke-width:2" /><line x1 = "489" y1 = "091" x2 = "494" y2 = "096" style = "stroke:rgb(0,128,0);stroke-width:2" /><line x1 = "494" y1 = "096" x2 = "500" y2 = "100" style = "stroke:rgb(0,128,0);stroke-width:2" /><line x1 = "500" y1 = "100" x2 = "505" y2 = "104" style = "stroke:rgb(0,128,0);stroke-width:2" /><line x1 = "505" y1 = "104" x2 = "510" y2 = "107" style = "stroke:rgb(0,128,0);stroke-width:2" /><line x1 = "510" y1 = "107" x2 = "516" y2 = "110" style = "stroke:rgb(0,128,0);stroke-width:2" /><line x1 = "516" y1 = "110" x2 = "521" y2 = "111" style = "stroke:rgb(0,128,0);stroke-width:2" /><line x1 = "521" y1 = "111" x2 = "526" y2 = "112" style = "stroke:rgb(0,128,0);stroke-width:2" /><line x1 = "526" y1 = "112" x2 = "532" y2 = "112" style = "stroke:rgb(0,128,0);stroke-width:2" /><line x1 = "532" y1 = "112" x2 = "537" y2 = "111" style = "stroke:rgb(0,128,0);stroke-width:2" /><line x1 = "537" y1 = "111" x2 = "542" y2 = "109" style = "stroke:rgb(0,128,0);stroke-width:2" /><line x1 = "542" y1 = "109" x2 = "547" y2 = "106" style = "stroke:rgb(0,128,0);stroke-width:2" /><line x1 = "547" y1 = "106" x2 = "553" y2 = "103" style = "stroke:rgb(0,128,0);stroke-width:2" /><line x1 = "553" y1 = "103" x2 = "558" y2 = "099" style = "stroke:rgb(0,128,0);stroke-width:2" /><line x1 = "558" y1 = "099" x2 = "563" y2 = "094" style = "stroke:rgb(0,128,0);stroke-width:2" /><line x1 = "563" y1 = "094" x2 = "569" y2 = "089" style = "stroke:rgb(0,128,0);stroke-width:2" /><line x1 = "569" y1 = "089" x2 = "574" y2 = "083" style = "stroke:rgb(0,128,0);stroke-width:2" /><line x1 = "574" y1 = "083" x2 = "579" y2 = "077" style = "stroke:rgb(0,128,0);stroke-width:2" /><line x1 = "579" y1 = "077" x2 = "585" y2 = "071" style = "stroke:rgb(0,128,0);stroke-width:2" /><line x1 = "585" y1 = "071" x2 = "590" y2 = "064" style = "stroke:rgb(0,128,0);stroke-width:2" /><line x1 = "590" y1 = "064" x2 = "595" y2 = "058" style = "stroke:rgb(0,128,0);stroke-width:2" /><line x1 = "595" y1 = "058" x2 = "601" y2 = "051" style = "stroke:rgb(0,128,0);stroke-width:2" /><line x1 = "601" y1 = "051" x2 = "606" y2 = "045" style = "stroke:rgb(0,128,0);stroke-width:2" /><line x1 = "606" y1 = "045" x2 = "611" y2 = "039" style = "stroke:rgb(0,128,0);stroke-width:2" /><line x1 = "611" y1 = "039" x2 = "617" y2 = "033" style = "stroke:rgb(0,128,0);stroke-width:2" /><line x1 = "617" y1 = "033" x2 = "622" y2 = "027" style = "stroke:rgb(0,128,0);stroke-width:2" /><line x1 = "622" y1 = "027" x2 = "627" y2 = "022" style = "stroke:rgb(0,128,0);stroke-width:2" /><line x1 = "627" y1 = "022" x2 = "633" y2 = "018" style = "stroke:rgb(0,128,0);stroke-width:2" /><line x1 = "633" y1 = "018" x2 = "638" y2 = "014" style = "stroke:rgb(0,128,0);stroke-width:2" /><line x1 = "638" y1 = "014" x2 = "643" y2 = "011" style = "stroke:rgb(0,128,0);stroke-width:2" /><line x1 = "643" y1 = "011" x2 = "648" y2 = "009" style = "stroke:rgb(0,128,0);stroke-width:2" /><line x1 = "648" y1 = "009" x2 = "654" y2 = "008" style = "stroke:rgb(0,128,0);stroke-width:2" /><line x1 = "654" y1 = "008" x2 = "659" y2 = "007" style = "stroke:rgb(0,128,0);stroke-width:2" /><line x1 = "659" y1 = "007" x2 = "664" y2 = "007" style = "stroke:rgb(0,128,0);stroke-width:2" /><line x1 = "664" y1 = "007" x2 = "670" y2 = "009" style = "stroke:rgb(0,128,0);stroke-width:2" /><line x1 = "670" y1 = "009" x2 = "675" y2 = "010" style = "stroke:rgb(0,128,0);stroke-width:2" /><line x1 = "675" y1 = "010" x2 = "680" y2 = "013" style = "stroke:rgb(0,128,0);stroke-width:2" /><line x1 = "680" y1 = "013" x2 = "686" y2 = "017" style = "stroke:rgb(0,128,0);stroke-width:2" /><line x1 = "686" y1 = "017" x2 = "691" y2 = "021" style = "stroke:rgb(0,128,0);stroke-width:2" /><line x1 = "691" y1 = "021" x2 = "696" y2 = "026" style = "stroke:rgb(0,128,0);stroke-width:2" /><line x1 = "696" y1 = "026" x2 = "702" y2 = "031" style = "stroke:rgb(0,128,0);stroke-width:2" /><line x1 = "702" y1 = "031" x2 = "707" y2 = "037" style = "stroke:rgb(0,128,0);stroke-width:2" /><line x1 = "707" y1 = "037" x2 = "712" y2 = "043" style = "stroke:rgb(0,128,0);stroke-width:2" /><line x1 = "712" y1 = "043" x2 = "718" y2 = "049" style = "stroke:rgb(0,128,0);stroke-width:2" /><line x1 = "718" y1 = "049" x2 = "723" y2 = "056" style = "stroke:rgb(0,128,0);stroke-width:2" /><line x1 = "723" y1 = "056" x2 = "728" y2 = "062" style = "stroke:rgb(0,128,0);stroke-width:2" /><line x1 = "728" y1 = "062" x2 = "734" y2 = "069" style = "stroke:rgb(0,128,0);stroke-width:2" /><line x1 = "734" y1 = "069" x2 = "739" y2 = "075" style = "stroke:rgb(0,128,0);stroke-width:2" /><line x1 = "739" y1 = "075" x2 = "744" y2 = "081" style = "stroke:rgb(0,128,0);stroke-width:2" /><line x1 = "744" y1 = "081" x2 = "749" y2 = "087" style = "stroke:rgb(0,128,0);stroke-width:2" /><line x1 = "749" y1 = "087" x2 = "755" y2 = "093" style = "stroke:rgb(0,128,0);stroke-width:2" /><line x1 = "755" y1 = "093" x2 = "760" y2 = "097" style = "stroke:rgb(0,128,0);stroke-width:2" /><line x1 = "760" y1 = "097" x2 = "765" y2 = "102" style = "stroke:rgb(0,128,0);stroke-width:2" /><line x1 = "765" y1 = "102" x2 = "771" y2 = "105" style = "stroke:rgb(0,128,0);stroke-width:2" /><line x1 = "771" y1 = "105" x2 = "776" y2 = "108" style = "stroke:rgb(0,128,0);stroke-width:2" /><line x1 = "776" y1 = "108" x2 = "781" y2 = "110" style = "stroke:rgb(0,128,0);stroke-width:2" /><line x1 = "781" y1 = "110" x2 = "787" y2 = "111" style = "stroke:rgb(0,128,0);stroke-width:2" /><line x1 = "787" y1 = "111" x2 = "792" y2 = "112" style = "stroke:rgb(0,128,0);stroke-width:2" /><line x1 = "000" y1 = "007" x2 = "005" y2 = "008" style = "stroke:rgb(255,0,0);stroke-width:2" /><line x1 = "005" y1 = "008" x2 = "011" y2 = "009" style = "stroke:rgb(255,0,0);stroke-width:2" /><line x1 = "011" y1 = "009" x2 = "016" y2 = "011" style = "stroke:rgb(255,0,0);stroke-width:2" /><line x1 = "016" y1 = "011" x2 = "021" y2 = "014" style = "stroke:rgb(255,0,0);stroke-width:2" /><line x1 = "021" y1 = "014" x2 = "027" y2 = "017" style = "stroke:rgb(255,0,0);stroke-width:2" /><line x1 = "027" y1 = "017" x2 = "032" y2 = "022" style = "stroke:rgb(255,0,0);stroke-width:2" /><line x1 = "032" y1 = "022" x2 = "037" y2 = "026" style = "stroke:rgb(255,0,0);stroke-width:2" /><line x1 = "037" y1 = "026" x2 = "043" y2 = "032" style = "stroke:rgb(255,0,0);stroke-width:2" /><line x1 = "043" y1 = "032" x2 = "048" y2 = "038" style = "stroke:rgb(255,0,0);stroke-width:2" /><line x1 = "048" y1 = "038" x2 = "053" y2 = "044" style = "stroke:rgb(255,0,0);stroke-width:2" /><line x1 = "053" y1 = "044" x2 = "058" y2 = "050" style = "stroke:rgb(255,0,0);stroke-width:2" /><line x1 = "058" y1 = "050" x2 = "064" y2 = "057" style = "stroke:rgb(255,0,0);stroke-width:2" /><line x1 = "064" y1 = "057" x2 = "069" y2 = "063" style = "stroke:rgb(255,0,0);stroke-width:2" /><line x1 = "069" y1 = "063" x2 = "074" y2 = "070" style = "stroke:rgb(255,0,0);stroke-width:2" /><line x1 = "074" y1 = "070" x2 = "080" y2 = "076" style = "stroke:rgb(255,0,0);stroke-width:2" /><line x1 = "080" y1 = "076" x2 = "085" y2 = "082" style = "stroke:rgb(255,0,0);stroke-width:2" /><line x1 = "085" y1 = "082" x2 = "090" y2 = "088" style = "stroke:rgb(255,0,0);stroke-width:2" /><line x1 = "090" y1 = "088" x2 = "096" y2 = "093" style = "stroke:rgb(255,0,0);stroke-width:2" /><line x1 = "096" y1 = "093" x2 = "101" y2 = "098" style = "stroke:rgb(255,0,0);stroke-width:2" /><line x1 = "101" y1 = "098" x2 = "106" y2 = "102" style = "stroke:rgb(255,0,0);stroke-width:2" /><line x1 = "106" y1 = "102" x2 = "112" y2 = "106" style = "stroke:rgb(255,0,0);stroke-width:2" /><line x1 = "112" y1 = "106" x2 = "117" y2 = "109" style = "stroke:rgb(255,0,0);stroke-width:2" /><line x1 = "117" y1 = "109" x2 = "122" y2 = "110" style = "stroke:rgb(255,0,0);stroke-width:2" /><line x1 = "122" y1 = "110" x2 = "128" y2 = "112" style = "stroke:rgb(255,0,0);stroke-width:2" /><line x1 = "128" y1 = "112" x2 = "133" y2 = "112" style = "stroke:rgb(255,0,0);stroke-width:2" /><line x1 = "133" y1 = "112" x2 = "138" y2 = "111" style = "stroke:rgb(255,0,0);stroke-width:2" /><line x1 = "138" y1 = "111" x2 = "144" y2 = "110" style = "stroke:rgb(255,0,0);stroke-width:2" /><line x1 = "144" y1 = "110" x2 = "149" y2 = "108" style = "stroke:rgb(255,0,0);stroke-width:2" /><line x1 = "149" y1 = "108" x2 = "154" y2 = "105" style = "stroke:rgb(255,0,0);stroke-width:2" /><line x1 = "154" y1 = "105" x2 = "159" y2 = "101" style = "stroke:rgb(255,0,0);stroke-width:2" /><line x1 = "159" y1 = "101" x2 = "165" y2 = "097" style = "stroke:rgb(255,0,0);stroke-width:2" /><line x1 = "165" y1 = "097" x2 = "170" y2 = "092" style = "stroke:rgb(255,0,0);stroke-width:2" /><line x1 = "170" y1 = "092" x2 = "175" y2 = "086" style = "stroke:rgb(255,0,0);stroke-width:2" /><line x1 = "175" y1 = "086" x2 = "181" y2 = "080" style = "stroke:rgb(255,0,0);stroke-width:2" /><line x1 = "181" y1 = "080" x2 = "186" y2 = "074" style = "stroke:rgb(255,0,0);stroke-width:2" /><line x1 = "186" y1 = "074" x2 = "191" y2 = "068" style = "stroke:rgb(255,0,0);stroke-width:2" /><line x1 = "191" y1 = "068" x2 = "197" y2 = "061" style = "stroke:rgb(255,0,0);stroke-width:2" /><line x1 = "197" y1 = "061" x2 = "202" y2 = "055" style = "stroke:rgb(255,0,0);stroke-width:2" /><line x1 = "202" y1 = "055" x2 = "207" y2 = "048" style = "stroke:rgb(255,0,0);stroke-width:2" /><line x1 = "207" y1 = "048" x2 = "213" y2 = "042" style = "stroke:rgb(255,0,0);stroke-width:2" /><line x1 = "213" y1 = "042" x2 = "218" y2 = "036" style = "stroke:rgb(255,0,0);stroke-width:2" /><line x1 = "218" y1 = "036" x2 = "223" y2 = "030" style = "stroke:rgb(255,0,0);stroke-width:2" /><line x1 = "223" y1 = "030" x2 = "229" y2 = "025" style = "stroke:rgb(255,0,0);stroke-width:2" /><line x1 = "229" y1 = "025" x2 = "234" y2 = "020" style = "stroke:rgb(255,0,0);stroke-width:2" /><line x1 = "234" y1 = "020" x2 = "239" y2 = "016" style = "stroke:rgb(255,0,0);stroke-width:2" /><line x1 = "239" y1 = "016" x2 = "245" y2 = "013" style = "stroke:rgb(255,0,0);stroke-width:2" /><line x1 = "245" y1 = "013" x2 = "250" y2 = "010" style = "stroke:rgb(255,0,0);stroke-width:2" /><line x1 = "250" y1 = "010" x2 = "255" y2 = "008" style = "stroke:rgb(255,0,0);stroke-width:2" /><line x1 = "255" y1 = "008" x2 = "260" y2 = "007" style = "stroke:rgb(255,0,0);stroke-width:2" /><line x1 = "260" y1 = "007" x2 = "266" y2 = "007" style = "stroke:rgb(255,0,0);stroke-width:2" /><line x1 = "266" y1 = "007" x2 = "271" y2 = "008" style = "stroke:rgb(255,0,0);stroke-width:2" /><line x1 = "271" y1 = "008" x2 = "276" y2 = "009" style = "stroke:rgb(255,0,0);stroke-width:2" /><line x1 = "276" y1 = "009" x2 = "282" y2 = "012" style = "stroke:rgb(255,0,0);stroke-width:2" /><line x1 = "282" y1 = "012" x2 = "287" y2 = "015" style = "stroke:rgb(255,0,0);stroke-width:2" /><line x1 = "287" y1 = "015" x2 = "292" y2 = "019" style = "stroke:rgb(255,0,0);stroke-width:2" /><line x1 = "292" y1 = "019" x2 = "298" y2 = "023" style = "stroke:rgb(255,0,0);stroke-width:2" /><line x1 = "298" y1 = "023" x2 = "303" y2 = "028" style = "stroke:rgb(255,0,0);stroke-width:2" /><line x1 = "303" y1 = "028" x2 = "308" y2 = "034" style = "stroke:rgb(255,0,0);stroke-width:2" /><line x1 = "308" y1 = "034" x2 = "314" y2 = "040" style = "stroke:rgb(255,0,0);stroke-width:2" /><line x1 = "314" y1 = "040" x2 = "319" y2 = "046" style = "stroke:rgb(255,0,0);stroke-width:2" /><line x1 = "319" y1 = "046" x2 = "324" y2 = "052" style = "stroke:rgb(255,0,0);stroke-width:2" /><line x1 = "324" y1 = "052" x2 = "330" y2 = "059" style = "stroke:rgb(255,0,0);stroke-width:2" /><line x1 = "330" y1 = "059" x2 = "335" y2 = "066" style = "stroke:rgb(255,0,0);stroke-width:2" /><line x1 = "335" y1 = "066" x2 = "340" y2 = "072" style = "stroke:rgb(255,0,0);stroke-width:2" /><line x1 = "340" y1 = "072" x2 = "346" y2 = "078" style = "stroke:rgb(255,0,0);stroke-width:2" /><line x1 = "346" y1 = "078" x2 = "351" y2 = "084" style = "stroke:rgb(255,0,0);stroke-width:2" /><line x1 = "351" y1 = "084" x2 = "356" y2 = "090" style = "stroke:rgb(255,0,0);stroke-width:2" /><line x1 = "356" y1 = "090" x2 = "361" y2 = "095" style = "stroke:rgb(255,0,0);stroke-width:2" /><line x1 = "361" y1 = "095" x2 = "367" y2 = "100" style = "stroke:rgb(255,0,0);stroke-width:2" /><line x1 = "367" y1 = "100" x2 = "372" y2 = "104" style = "stroke:rgb(255,0,0);stroke-width:2" /><line x1 = "372" y1 = "104" x2 = "377" y2 = "107" style = "stroke:rgb(255,0,0);stroke-width:2" /><line x1 = "377" y1 = "107" x2 = "383" y2 = "109" style = "stroke:rgb(255,0,0);stroke-width:2" /><line x1 = "383" y1 = "109" x2 = "388" y2 = "111" style = "stroke:rgb(255,0,0);stroke-width:2" /><line x1 = "388" y1 = "111" x2 = "393" y2 = "112" style = "stroke:rgb(255,0,0);stroke-width:2" /><line x1 = "393" y1 = "112" x2 = "399" y2 = "112" style = "stroke:rgb(255,0,0);stroke-width:2" /><line x1 = "399" y1 = "112" x2 = "404" y2 = "111" style = "stroke:rgb(255,0,0);stroke-width:2" /><line x1 = "404" y1 = "111" x2 = "409" y2 = "109" style = "stroke:rgb(255,0,0);stroke-width:2" /><line x1 = "409" y1 = "109" x2 = "415" y2 = "107" style = "stroke:rgb(255,0,0);stroke-width:2" /><line x1 = "415" y1 = "107" x2 = "420" y2 = "104" style = "stroke:rgb(255,0,0);stroke-width:2" /><line x1 = "420" y1 = "104" x2 = "425" y2 = "100" style = "stroke:rgb(255,0,0);stroke-width:2" /><line x1 = "425" y1 = "100" x2 = "431" y2 = "095" style = "stroke:rgb(255,0,0);stroke-width:2" /><line x1 = "431" y1 = "095" x2 = "436" y2 = "090" style = "stroke:rgb(255,0,0);stroke-width:2" /><line x1 = "436" y1 = "090" x2 = "441" y2 = "084" style = "stroke:rgb(255,0,0);stroke-width:2" /><line x1 = "441" y1 = "084" x2 = "446" y2 = "078" style = "stroke:rgb(255,0,0);stroke-width:2" /><line x1 = "446" y1 = "078" x2 = "452" y2 = "072" style = "stroke:rgb(255,0,0);stroke-width:2" /><line x1 = "452" y1 = "072" x2 = "457" y2 = "066" style = "stroke:rgb(255,0,0);stroke-width:2" /><line x1 = "457" y1 = "066" x2 = "462" y2 = "059" style = "stroke:rgb(255,0,0);stroke-width:2" /><line x1 = "462" y1 = "059" x2 = "468" y2 = "052" style = "stroke:rgb(255,0,0);stroke-width:2" /><line x1 = "468" y1 = "052" x2 = "473" y2 = "046" style = "stroke:rgb(255,0,0);stroke-width:2" /><line x1 = "473" y1 = "046" x2 = "478" y2 = "040" style = "stroke:rgb(255,0,0);stroke-width:2" /><line x1 = "478" y1 = "040" x2 = "484" y2 = "034" style = "stroke:rgb(255,0,0);stroke-width:2" /><line x1 = "484" y1 = "034" x2 = "489" y2 = "028" style = "stroke:rgb(255,0,0);stroke-width:2" /><line x1 = "489" y1 = "028" x2 = "494" y2 = "023" style = "stroke:rgb(255,0,0);stroke-width:2" /><line x1 = "494" y1 = "023" x2 = "500" y2 = "019" style = "stroke:rgb(255,0,0);stroke-width:2" /><line x1 = "500" y1 = "019" x2 = "505" y2 = "015" style = "stroke:rgb(255,0,0);stroke-width:2" /><line x1 = "505" y1 = "015" x2 = "510" y2 = "012" style = "stroke:rgb(255,0,0);stroke-width:2" /><line x1 = "510" y1 = "012" x2 = "516" y2 = "009" style = "stroke:rgb(255,0,0);stroke-width:2" /><line x1 = "516" y1 = "009" x2 = "521" y2 = "008" style = "stroke:rgb(255,0,0);stroke-width:2" /><line x1 = "521" y1 = "008" x2 = "526" y2 = "007" style = "stroke:rgb(255,0,0);stroke-width:2" /><line x1 = "526" y1 = "007" x2 = "532" y2 = "007" style = "stroke:rgb(255,0,0);stroke-width:2" /><line x1 = "532" y1 = "007" x2 = "537" y2 = "008" style = "stroke:rgb(255,0,0);stroke-width:2" /><line x1 = "537" y1 = "008" x2 = "542" y2 = "010" style = "stroke:rgb(255,0,0);stroke-width:2" /><line x1 = "542" y1 = "010" x2 = "547" y2 = "013" style = "stroke:rgb(255,0,0);stroke-width:2" /><line x1 = "547" y1 = "013" x2 = "553" y2 = "016" style = "stroke:rgb(255,0,0);stroke-width:2" /><line x1 = "553" y1 = "016" x2 = "558" y2 = "020" style = "stroke:rgb(255,0,0);stroke-width:2" /><line x1 = "558" y1 = "020" x2 = "563" y2 = "025" style = "stroke:rgb(255,0,0);stroke-width:2" /><line x1 = "563" y1 = "025" x2 = "569" y2 = "030" style = "stroke:rgb(255,0,0);stroke-width:2" /><line x1 = "569" y1 = "030" x2 = "574" y2 = "036" style = "stroke:rgb(255,0,0);stroke-width:2" /><line x1 = "574" y1 = "036" x2 = "579" y2 = "042" style = "stroke:rgb(255,0,0);stroke-width:2" /><line x1 = "579" y1 = "042" x2 = "585" y2 = "048" style = "stroke:rgb(255,0,0);stroke-width:2" /><line x1 = "585" y1 = "048" x2 = "590" y2 = "055" style = "stroke:rgb(255,0,0);stroke-width:2" /><line x1 = "590" y1 = "055" x2 = "595" y2 = "061" style = "stroke:rgb(255,0,0);stroke-width:2" /><line x1 = "595" y1 = "061" x2 = "601" y2 = "068" style = "stroke:rgb(255,0,0);stroke-width:2" /><line x1 = "601" y1 = "068" x2 = "606" y2 = "074" style = "stroke:rgb(255,0,0);stroke-width:2" /><line x1 = "606" y1 = "074" x2 = "611" y2 = "080" style = "stroke:rgb(255,0,0);stroke-width:2" /><line x1 = "611" y1 = "080" x2 = "617" y2 = "086" style = "stroke:rgb(255,0,0);stroke-width:2" /><line x1 = "617" y1 = "086" x2 = "622" y2 = "092" style = "stroke:rgb(255,0,0);stroke-width:2" /><line x1 = "622" y1 = "092" x2 = "627" y2 = "097" style = "stroke:rgb(255,0,0);stroke-width:2" /><line x1 = "627" y1 = "097" x2 = "633" y2 = "101" style = "stroke:rgb(255,0,0);stroke-width:2" /><line x1 = "633" y1 = "101" x2 = "638" y2 = "105" style = "stroke:rgb(255,0,0);stroke-width:2" /><line x1 = "638" y1 = "105" x2 = "643" y2 = "108" style = "stroke:rgb(255,0,0);stroke-width:2" /><line x1 = "643" y1 = "108" x2 = "648" y2 = "110" style = "stroke:rgb(255,0,0);stroke-width:2" /><line x1 = "648" y1 = "110" x2 = "654" y2 = "111" style = "stroke:rgb(255,0,0);stroke-width:2" /><line x1 = "654" y1 = "111" x2 = "659" y2 = "112" style = "stroke:rgb(255,0,0);stroke-width:2" /><line x1 = "659" y1 = "112" x2 = "664" y2 = "112" style = "stroke:rgb(255,0,0);stroke-width:2" /><line x1 = "664" y1 = "112" x2 = "670" y2 = "110" style = "stroke:rgb(255,0,0);stroke-width:2" /><line x1 = "670" y1 = "110" x2 = "675" y2 = "109" style = "stroke:rgb(255,0,0);stroke-width:2" /><line x1 = "675" y1 = "109" x2 = "680" y2 = "106" style = "stroke:rgb(255,0,0);stroke-width:2" /><line x1 = "680" y1 = "106" x2 = "686" y2 = "102" style = "stroke:rgb(255,0,0);stroke-width:2" /><line x1 = "686" y1 = "102" x2 = "691" y2 = "098" style = "stroke:rgb(255,0,0);stroke-width:2" /><line x1 = "691" y1 = "098" x2 = "696" y2 = "093" style = "stroke:rgb(255,0,0);stroke-width:2" /><line x1 = "696" y1 = "093" x2 = "702" y2 = "088" style = "stroke:rgb(255,0,0);stroke-width:2" /><line x1 = "702" y1 = "088" x2 = "707" y2 = "082" style = "stroke:rgb(255,0,0);stroke-width:2" /><line x1 = "707" y1 = "082" x2 = "712" y2 = "076" style = "stroke:rgb(255,0,0);stroke-width:2" /><line x1 = "712" y1 = "076" x2 = "718" y2 = "070" style = "stroke:rgb(255,0,0);stroke-width:2" /><line x1 = "718" y1 = "070" x2 = "723" y2 = "063" style = "stroke:rgb(255,0,0);stroke-width:2" /><line x1 = "723" y1 = "063" x2 = "728" y2 = "057" style = "stroke:rgb(255,0,0);stroke-width:2" /><line x1 = "728" y1 = "057" x2 = "734" y2 = "050" style = "stroke:rgb(255,0,0);stroke-width:2" /><line x1 = "734" y1 = "050" x2 = "739" y2 = "044" style = "stroke:rgb(255,0,0);stroke-width:2" /><line x1 = "739" y1 = "044" x2 = "744" y2 = "038" style = "stroke:rgb(255,0,0);stroke-width:2" /><line x1 = "744" y1 = "038" x2 = "749" y2 = "032" style = "stroke:rgb(255,0,0);stroke-width:2" /><line x1 = "749" y1 = "032" x2 = "755" y2 = "026" style = "stroke:rgb(255,0,0);stroke-width:2" /><line x1 = "755" y1 = "026" x2 = "760" y2 = "022" style = "stroke:rgb(255,0,0);stroke-width:2" /><line x1 = "760" y1 = "022" x2 = "765" y2 = "017" style = "stroke:rgb(255,0,0);stroke-width:2" /><line x1 = "765" y1 = "017" x2 = "771" y2 = "014" style = "stroke:rgb(255,0,0);stroke-width:2" /><line x1 = "771" y1 = "014" x2 = "776" y2 = "011" style = "stroke:rgb(255,0,0);stroke-width:2" /><line x1 = "776" y1 = "011" x2 = "781" y2 = "009" style = "stroke:rgb(255,0,0);stroke-width:2" /><line x1 = "781" y1 = "009" x2 = "787" y2 = "008" style = "stroke:rgb(255,0,0);stroke-width:2" /><line x1 = "787" y1 = "008" x2 = "792" y2 = "007" style = "stroke:rgb(255,0,0);stroke-width:2" /><line x1 = "000" y1 = "060" x2 = "005" y2 = "060" style = "stroke:rgb(255,165,0);stroke-width:2" /><line x1 = "005" y1 = "060" x2 = "011" y2 = "060" style = "stroke:rgb(255,165,0);stroke-width:2" /><line x1 = "011" y1 = "060" x2 = "016" y2 = "060" style = "stroke:rgb(255,165,0);stroke-width:2" /><line x1 = "016" y1 = "060" x2 = "021" y2 = "060" style = "stroke:rgb(255,165,0);stroke-width:2" /><line x1 = "021" y1 = "060" x2 = "027" y2 = "060" style = "stroke:rgb(255,165,0);stroke-width:2" /><line x1 = "027" y1 = "060" x2 = "032" y2 = "060" style = "stroke:rgb(255,165,0);stroke-width:2" /><line x1 = "032" y1 = "060" x2 = "037" y2 = "060" style = "stroke:rgb(255,165,0);stroke-width:2" /><line x1 = "037" y1 = "060" x2 = "043" y2 = "060" style = "stroke:rgb(255,165,0);stroke-width:2" /><line x1 = "043" y1 = "060" x2 = "048" y2 = "060" style = "stroke:rgb(255,165,0);stroke-width:2" /><line x1 = "048" y1 = "060" x2 = "053" y2 = "060" style = "stroke:rgb(255,165,0);stroke-width:2" /><line x1 = "053" y1 = "060" x2 = "058" y2 = "060" style = "stroke:rgb(255,165,0);stroke-width:2" /><line x1 = "058" y1 = "060" x2 = "064" y2 = "060" style = "stroke:rgb(255,165,0);stroke-width:2" /><line x1 = "064" y1 = "060" x2 = "069" y2 = "060" style = "stroke:rgb(255,165,0);stroke-width:2" /><line x1 = "069" y1 = "060" x2 = "074" y2 = "060" style = "stroke:rgb(255,165,0);stroke-width:2" /><line x1 = "074" y1 = "060" x2 = "080" y2 = "060" style = "stroke:rgb(255,165,0);stroke-width:2" /><line x1 = "080" y1 = "060" x2 = "085" y2 = "060" style = "stroke:rgb(255,165,0);stroke-width:2" /><line x1 = "085" y1 = "060" x2 = "090" y2 = "060" style = "stroke:rgb(255,165,0);stroke-width:2" /><line x1 = "090" y1 = "060" x2 = "096" y2 = "060" style = "stroke:rgb(255,165,0);stroke-width:2" /><line x1 = "096" y1 = "060" x2 = "101" y2 = "060" style = "stroke:rgb(255,165,0);stroke-width:2" /><line x1 = "101" y1 = "060" x2 = "106" y2 = "060" style = "stroke:rgb(255,165,0);stroke-width:2" /><line x1 = "106" y1 = "060" x2 = "112" y2 = "060" style = "stroke:rgb(255,165,0);stroke-width:2" /><line x1 = "112" y1 = "060" x2 = "117" y2 = "060" style = "stroke:rgb(255,165,0);stroke-width:2" /><line x1 = "117" y1 = "060" x2 = "122" y2 = "060" style = "stroke:rgb(255,165,0);stroke-width:2" /><line x1 = "122" y1 = "060" x2 = "128" y2 = "060" style = "stroke:rgb(255,165,0);stroke-width:2" /><line x1 = "128" y1 = "060" x2 = "133" y2 = "060" style = "stroke:rgb(255,165,0);stroke-width:2" /><line x1 = "133" y1 = "060" x2 = "138" y2 = "060" style = "stroke:rgb(255,165,0);stroke-width:2" /><line x1 = "138" y1 = "060" x2 = "144" y2 = "060" style = "stroke:rgb(255,165,0);stroke-width:2" /><line x1 = "144" y1 = "060" x2 = "149" y2 = "060" style = "stroke:rgb(255,165,0);stroke-width:2" /><line x1 = "149" y1 = "060" x2 = "154" y2 = "060" style = "stroke:rgb(255,165,0);stroke-width:2" /><line x1 = "154" y1 = "060" x2 = "159" y2 = "060" style = "stroke:rgb(255,165,0);stroke-width:2" /><line x1 = "159" y1 = "060" x2 = "165" y2 = "060" style = "stroke:rgb(255,165,0);stroke-width:2" /><line x1 = "165" y1 = "060" x2 = "170" y2 = "060" style = "stroke:rgb(255,165,0);stroke-width:2" /><line x1 = "170" y1 = "060" x2 = "175" y2 = "060" style = "stroke:rgb(255,165,0);stroke-width:2" /><line x1 = "175" y1 = "060" x2 = "181" y2 = "060" style = "stroke:rgb(255,165,0);stroke-width:2" /><line x1 = "181" y1 = "060" x2 = "186" y2 = "060" style = "stroke:rgb(255,165,0);stroke-width:2" /><line x1 = "186" y1 = "060" x2 = "191" y2 = "060" style = "stroke:rgb(255,165,0);stroke-width:2" /><line x1 = "191" y1 = "060" x2 = "197" y2 = "060" style = "stroke:rgb(255,165,0);stroke-width:2" /><line x1 = "197" y1 = "060" x2 = "202" y2 = "060" style = "stroke:rgb(255,165,0);stroke-width:2" /><line x1 = "202" y1 = "060" x2 = "207" y2 = "060" style = "stroke:rgb(255,165,0);stroke-width:2" /><line x1 = "207" y1 = "060" x2 = "213" y2 = "060" style = "stroke:rgb(255,165,0);stroke-width:2" /><line x1 = "213" y1 = "060" x2 = "218" y2 = "060" style = "stroke:rgb(255,165,0);stroke-width:2" /><line x1 = "218" y1 = "060" x2 = "223" y2 = "060" style = "stroke:rgb(255,165,0);stroke-width:2" /><line x1 = "223" y1 = "060" x2 = "229" y2 = "060" style = "stroke:rgb(255,165,0);stroke-width:2" /><line x1 = "229" y1 = "060" x2 = "234" y2 = "060" style = "stroke:rgb(255,165,0);stroke-width:2" /><line x1 = "234" y1 = "060" x2 = "239" y2 = "060" style = "stroke:rgb(255,165,0);stroke-width:2" /><line x1 = "239" y1 = "060" x2 = "245" y2 = "060" style = "stroke:rgb(255,165,0);stroke-width:2" /><line x1 = "245" y1 = "060" x2 = "250" y2 = "060" style = "stroke:rgb(255,165,0);stroke-width:2" /><line x1 = "250" y1 = "060" x2 = "255" y2 = "060" style = "stroke:rgb(255,165,0);stroke-width:2" /><line x1 = "255" y1 = "060" x2 = "260" y2 = "060" style = "stroke:rgb(255,165,0);stroke-width:2" /><line x1 = "260" y1 = "060" x2 = "266" y2 = "060" style = "stroke:rgb(255,165,0);stroke-width:2" /><line x1 = "266" y1 = "060" x2 = "271" y2 = "060" style = "stroke:rgb(255,165,0);stroke-width:2" /><line x1 = "271" y1 = "060" x2 = "276" y2 = "060" style = "stroke:rgb(255,165,0);stroke-width:2" /><line x1 = "276" y1 = "060" x2 = "282" y2 = "060" style = "stroke:rgb(255,165,0);stroke-width:2" /><line x1 = "282" y1 = "060" x2 = "287" y2 = "060" style = "stroke:rgb(255,165,0);stroke-width:2" /><line x1 = "287" y1 = "060" x2 = "292" y2 = "060" style = "stroke:rgb(255,165,0);stroke-width:2" /><line x1 = "292" y1 = "060" x2 = "298" y2 = "060" style = "stroke:rgb(255,165,0);stroke-width:2" /><line x1 = "298" y1 = "060" x2 = "303" y2 = "060" style = "stroke:rgb(255,165,0);stroke-width:2" /><line x1 = "303" y1 = "060" x2 = "308" y2 = "060" style = "stroke:rgb(255,165,0);stroke-width:2" /><line x1 = "308" y1 = "060" x2 = "314" y2 = "060" style = "stroke:rgb(255,165,0);stroke-width:2" /><line x1 = "314" y1 = "060" x2 = "319" y2 = "060" style = "stroke:rgb(255,165,0);stroke-width:2" /><line x1 = "319" y1 = "060" x2 = "324" y2 = "060" style = "stroke:rgb(255,165,0);stroke-width:2" /><line x1 = "324" y1 = "060" x2 = "330" y2 = "060" style = "stroke:rgb(255,165,0);stroke-width:2" /><line x1 = "330" y1 = "060" x2 = "335" y2 = "060" style = "stroke:rgb(255,165,0);stroke-width:2" /><line x1 = "335" y1 = "060" x2 = "340" y2 = "060" style = "stroke:rgb(255,165,0);stroke-width:2" /><line x1 = "340" y1 = "060" x2 = "346" y2 = "060" style = "stroke:rgb(255,165,0);stroke-width:2" /><line x1 = "346" y1 = "060" x2 = "351" y2 = "060" style = "stroke:rgb(255,165,0);stroke-width:2" /><line x1 = "351" y1 = "060" x2 = "356" y2 = "060" style = "stroke:rgb(255,165,0);stroke-width:2" /><line x1 = "356" y1 = "060" x2 = "361" y2 = "060" style = "stroke:rgb(255,165,0);stroke-width:2" /><line x1 = "361" y1 = "060" x2 = "367" y2 = "060" style = "stroke:rgb(255,165,0);stroke-width:2" /><line x1 = "367" y1 = "060" x2 = "372" y2 = "060" style = "stroke:rgb(255,165,0);stroke-width:2" /><line x1 = "372" y1 = "060" x2 = "377" y2 = "060" style = "stroke:rgb(255,165,0);stroke-width:2" /><line x1 = "377" y1 = "060" x2 = "383" y2 = "060" style = "stroke:rgb(255,165,0);stroke-width:2" /><line x1 = "383" y1 = "060" x2 = "388" y2 = "060" style = "stroke:rgb(255,165,0);stroke-width:2" /><line x1 = "388" y1 = "060" x2 = "393" y2 = "060" style = "stroke:rgb(255,165,0);stroke-width:2" /><line x1 = "393" y1 = "060" x2 = "399" y2 = "060" style = "stroke:rgb(255,165,0);stroke-width:2" /><line x1 = "399" y1 = "060" x2 = "404" y2 = "060" style = "stroke:rgb(255,165,0);stroke-width:2" /><line x1 = "404" y1 = "060" x2 = "409" y2 = "060" style = "stroke:rgb(255,165,0);stroke-width:2" /><line x1 = "409" y1 = "060" x2 = "415" y2 = "060" style = "stroke:rgb(255,165,0);stroke-width:2" /><line x1 = "415" y1 = "060" x2 = "420" y2 = "060" style = "stroke:rgb(255,165,0);stroke-width:2" /><line x1 = "420" y1 = "060" x2 = "425" y2 = "060" style = "stroke:rgb(255,165,0);stroke-width:2" /><line x1 = "425" y1 = "060" x2 = "431" y2 = "060" style = "stroke:rgb(255,165,0);stroke-width:2" /><line x1 = "431" y1 = "060" x2 = "436" y2 = "060" style = "stroke:rgb(255,165,0);stroke-width:2" /><line x1 = "436" y1 = "060" x2 = "441" y2 = "060" style = "stroke:rgb(255,165,0);stroke-width:2" /><line x1 = "441" y1 = "060" x2 = "446" y2 = "060" style = "stroke:rgb(255,165,0);stroke-width:2" /><line x1 = "446" y1 = "060" x2 = "452" y2 = "060" style = "stroke:rgb(255,165,0);stroke-width:2" /><line x1 = "452" y1 = "060" x2 = "457" y2 = "060" style = "stroke:rgb(255,165,0);stroke-width:2" /><line x1 = "457" y1 = "060" x2 = "462" y2 = "060" style = "stroke:rgb(255,165,0);stroke-width:2" /><line x1 = "462" y1 = "060" x2 = "468" y2 = "060" style = "stroke:rgb(255,165,0);stroke-width:2" /><line x1 = "468" y1 = "060" x2 = "473" y2 = "060" style = "stroke:rgb(255,165,0);stroke-width:2" /><line x1 = "473" y1 = "060" x2 = "478" y2 = "060" style = "stroke:rgb(255,165,0);stroke-width:2" /><line x1 = "478" y1 = "060" x2 = "484" y2 = "060" style = "stroke:rgb(255,165,0);stroke-width:2" /><line x1 = "484" y1 = "060" x2 = "489" y2 = "060" style = "stroke:rgb(255,165,0);stroke-width:2" /><line x1 = "489" y1 = "060" x2 = "494" y2 = "060" style = "stroke:rgb(255,165,0);stroke-width:2" /><line x1 = "494" y1 = "060" x2 = "500" y2 = "060" style = "stroke:rgb(255,165,0);stroke-width:2" /><line x1 = "500" y1 = "060" x2 = "505" y2 = "060" style = "stroke:rgb(255,165,0);stroke-width:2" /><line x1 = "505" y1 = "060" x2 = "510" y2 = "060" style = "stroke:rgb(255,165,0);stroke-width:2" /><line x1 = "510" y1 = "060" x2 = "516" y2 = "060" style = "stroke:rgb(255,165,0);stroke-width:2" /><line x1 = "516" y1 = "060" x2 = "521" y2 = "060" style = "stroke:rgb(255,165,0);stroke-width:2" /><line x1 = "521" y1 = "060" x2 = "526" y2 = "060" style = "stroke:rgb(255,165,0);stroke-width:2" /><line x1 = "526" y1 = "060" x2 = "532" y2 = "060" style = "stroke:rgb(255,165,0);stroke-width:2" /><line x1 = "532" y1 = "060" x2 = "537" y2 = "060" style = "stroke:rgb(255,165,0);stroke-width:2" /><line x1 = "537" y1 = "060" x2 = "542" y2 = "060" style = "stroke:rgb(255,165,0);stroke-width:2" /><line x1 = "542" y1 = "060" x2 = "547" y2 = "060" style = "stroke:rgb(255,165,0);stroke-width:2" /><line x1 = "547" y1 = "060" x2 = "553" y2 = "060" style = "stroke:rgb(255,165,0);stroke-width:2" /><line x1 = "553" y1 = "060" x2 = "558" y2 = "060" style = "stroke:rgb(255,165,0);stroke-width:2" /><line x1 = "558" y1 = "060" x2 = "563" y2 = "060" style = "stroke:rgb(255,165,0);stroke-width:2" /><line x1 = "563" y1 = "060" x2 = "569" y2 = "060" style = "stroke:rgb(255,165,0);stroke-width:2" /><line x1 = "569" y1 = "060" x2 = "574" y2 = "060" style = "stroke:rgb(255,165,0);stroke-width:2" /><line x1 = "574" y1 = "060" x2 = "579" y2 = "060" style = "stroke:rgb(255,165,0);stroke-width:2" /><line x1 = "579" y1 = "060" x2 = "585" y2 = "060" style = "stroke:rgb(255,165,0);stroke-width:2" /><line x1 = "585" y1 = "060" x2 = "590" y2 = "060" style = "stroke:rgb(255,165,0);stroke-width:2" /><line x1 = "590" y1 = "060" x2 = "595" y2 = "060" style = "stroke:rgb(255,165,0);stroke-width:2" /><line x1 = "595" y1 = "060" x2 = "601" y2 = "060" style = "stroke:rgb(255,165,0);stroke-width:2" /><line x1 = "601" y1 = "060" x2 = "606" y2 = "060" style = "stroke:rgb(255,165,0);stroke-width:2" /><line x1 = "606" y1 = "060" x2 = "611" y2 = "060" style = "stroke:rgb(255,165,0);stroke-width:2" /><line x1 = "611" y1 = "060" x2 = "617" y2 = "060" style = "stroke:rgb(255,165,0);stroke-width:2" /><line x1 = "617" y1 = "060" x2 = "622" y2 = "060" style = "stroke:rgb(255,165,0);stroke-width:2" /><line x1 = "622" y1 = "060" x2 = "627" y2 = "060" style = "stroke:rgb(255,165,0);stroke-width:2" /><line x1 = "627" y1 = "060" x2 = "633" y2 = "060" style = "stroke:rgb(255,165,0);stroke-width:2" /><line x1 = "633" y1 = "060" x2 = "638" y2 = "060" style = "stroke:rgb(255,165,0);stroke-width:2" /><line x1 = "638" y1 = "060" x2 = "643" y2 = "060" style = "stroke:rgb(255,165,0);stroke-width:2" /><line x1 = "643" y1 = "060" x2 = "648" y2 = "060" style = "stroke:rgb(255,165,0);stroke-width:2" /><line x1 = "648" y1 = "060" x2 = "654" y2 = "060" style = "stroke:rgb(255,165,0);stroke-width:2" /><line x1 = "654" y1 = "060" x2 = "659" y2 = "060" style = "stroke:rgb(255,165,0);stroke-width:2" /><line x1 = "659" y1 = "060" x2 = "664" y2 = "060" style = "stroke:rgb(255,165,0);stroke-width:2" /><line x1 = "664" y1 = "060" x2 = "670" y2 = "060" style = "stroke:rgb(255,165,0);stroke-width:2" /><line x1 = "670" y1 = "060" x2 = "675" y2 = "060" style = "stroke:rgb(255,165,0);stroke-width:2" /><line x1 = "675" y1 = "060" x2 = "680" y2 = "060" style = "stroke:rgb(255,165,0);stroke-width:2" /><line x1 = "680" y1 = "060" x2 = "686" y2 = "060" style = "stroke:rgb(255,165,0);stroke-width:2" /><line x1 = "686" y1 = "060" x2 = "691" y2 = "060" style = "stroke:rgb(255,165,0);stroke-width:2" /><line x1 = "691" y1 = "060" x2 = "696" y2 = "060" style = "stroke:rgb(255,165,0);stroke-width:2" /><line x1 = "696" y1 = "060" x2 = "702" y2 = "060" style = "stroke:rgb(255,165,0);stroke-width:2" /><line x1 = "702" y1 = "060" x2 = "707" y2 = "060" style = "stroke:rgb(255,165,0);stroke-width:2" /><line x1 = "707" y1 = "060" x2 = "712" y2 = "060" style = "stroke:rgb(255,165,0);stroke-width:2" /><line x1 = "712" y1 = "060" x2 = "718" y2 = "060" style = "stroke:rgb(255,165,0);stroke-width:2" /><line x1 = "718" y1 = "060" x2 = "723" y2 = "060" style = "stroke:rgb(255,165,0);stroke-width:2" /><line x1 = "723" y1 = "060" x2 = "728" y2 = "060" style = "stroke:rgb(255,165,0);stroke-width:2" /><line x1 = "728" y1 = "060" x2 = "734" y2 = "060" style = "stroke:rgb(255,165,0);stroke-width:2" /><line x1 = "734" y1 = "060" x2 = "739" y2 = "060" style = "stroke:rgb(255,165,0);stroke-width:2" /><line x1 = "739" y1 = "060" x2 = "744" y2 = "060" style = "stroke:rgb(255,165,0);stroke-width:2" /><line x1 = "744" y1 = "060" x2 = "749" y2 = "060" style = "stroke:rgb(255,165,0);stroke-width:2" /><line x1 = "749" y1 = "060" x2 = "755" y2 = "060" style = "stroke:rgb(255,165,0);stroke-width:2" /><line x1 = "755" y1 = "060" x2 = "760" y2 = "060" style = "stroke:rgb(255,165,0);stroke-width:2" /><line x1 = "760" y1 = "060" x2 = "765" y2 = "060" style = "stroke:rgb(255,165,0);stroke-width:2" /><line x1 = "765" y1 = "060" x2 = "771" y2 = "060" style = "stroke:rgb(255,165,0);stroke-width:2" /><line x1 = "771" y1 = "060" x2 = "776" y2 = "060" style = "stroke:rgb(255,165,0);stroke-width:2" /><line x1 = "776" y1 = "060" x2 = "781" y2 = "060" style = "stroke:rgb(255,165,0);stroke-width:2" /><line x1 = "781" y1 = "060" x2 = "787" y2 = "060" style = "stroke:rgb(255,165,0);stroke-width:2" /><line x1 = "787" y1 = "060" x2 = "792" y2 = "060" style = "stroke:rgb(255,165,0);stroke-width:2" />
</svg>